<?xml version="1.0" standalone="no"?>
<!DOCTYPE svg PUBLIC "-//W3C//DTD SVG 20010904//EN"
 "http://www.w3.org/TR/2001/REC-SVG-20010904/DTD/svg10.dtd">
<svg version="1.0" xmlns="http://www.w3.org/2000/svg"
 width="1200.000000pt" height="1200.000000pt" viewBox="0 0 1200.000000 1200.000000"
 preserveAspectRatio="xMidYMid meet">

<g transform="translate(0.000000,1200.000000) scale(0.100000,-0.100000)"
fill="#000000" stroke="none">
<path d="M5900 7603 c-205 -15 -420 -80 -578 -176 l-53 -32 3 -415 c3 -405 4
-416 26 -471 81 -203 279 -393 580 -559 l114 -63 56 23 c360 144 631 416 677
681 5 24 9 212 9 418 2 433 15 384 -123 455 -128 65 -251 104 -401 126 -74 10
-243 18 -310 13z m358 -148 c102 -20 236 -66 299 -103 l48 -28 2 -335 c1 -376
-3 -416 -62 -529 -68 -128 -201 -250 -390 -359 l-90 -52 -5 108 -5 108 -57 0
-58 1 0 -104 0 -104 -57 32 c-155 87 -333 241 -406 353 -79 119 -80 129 -85
524 l-3 353 45 29 c63 39 241 97 356 115 119 18 353 14 468 -9z"/>
<path d="M5615 7282 c-22 -10 -55 -31 -73 -47 -32 -26 -99 -115 -87 -115 3 0
29 16 59 36 77 50 131 65 180 49 43 -15 87 -54 118 -103 28 -45 53 -57 89 -42
31 13 45 45 35 78 -9 28 -97 117 -136 137 -51 26 -137 30 -185 7z"/>
<path d="M6236 7290 c-70 -22 -176 -128 -176 -176 0 -28 36 -64 63 -64 11 0
31 14 46 31 113 132 140 153 200 151 37 -2 63 -16 134 -75 l49 -40 -16 37
c-41 99 -96 138 -200 142 -39 2 -84 -1 -100 -6z"/>
<path d="M5598 7046 c-21 -7 -50 -22 -65 -31 l-27 -18 30 -24 c64 -51 175 -55
246 -8 21 14 36 30 33 36 -12 19 -83 48 -131 54 -31 3 -63 0 -86 -9z"/>
<path d="M6268 7046 c-21 -7 -50 -22 -65 -31 l-27 -18 30 -24 c64 -51 175 -55
246 -8 21 14 36 30 33 36 -12 19 -83 48 -131 54 -31 3 -63 0 -86 -9z"/>
<path d="M5522 6672 c2 -5 41 -73 88 -150 l85 -142 119 0 120 0 33 32 33 32
33 -32 33 -32 120 0 119 0 88 146 c48 81 86 149 83 151 -2 2 -55 -34 -117 -81
-142 -108 -152 -109 -234 -26 l-59 60 -66 0 -66 0 -59 -60 c-82 -83 -92 -82
-235 25 -114 85 -125 92 -118 77z"/>
<path d="M3000 5965 l0 -115 825 0 825 0 0 115 0 115 -825 0 -825 0 0 -115z"/>
<path d="M7350 5965 l0 -115 825 0 825 0 0 115 0 115 -825 0 -825 0 0 -115z"/>
<path d="M5941 4954 c-26 -21 -31 -33 -31 -69 0 -36 5 -48 31 -69 40 -34 80
-34 120 2 25 22 31 36 31 67 0 31 -6 45 -31 67 -40 36 -80 36 -120 2z"/>
<path d="M6549 4913 l36 -68 78 -3 77 -3 0 -344 0 -345 -100 0 -100 0 0 -70 0
-70 280 0 280 0 0 70 0 70 -100 0 -101 0 1 403 c1 221 1 408 1 415 -1 9 -47
12 -195 12 l-194 0 37 -67z"/>
<path d="M3122 4938 c6 -16 216 -659 266 -816 l36 -113 80 3 80 3 148 450 c81
248 150 459 154 468 6 16 -2 18 -86 15 l-93 -3 -98 -330 c-54 -181 -98 -341
-99 -355 0 -14 -37 99 -81 250 -44 151 -90 311 -103 355 l-23 80 -93 3 c-72 2
-91 0 -88 -10z"/>
<path d="M4305 4713 c-122 -20 -240 -65 -232 -87 2 -6 12 -35 22 -63 11 -29
22 -53 26 -53 5 0 23 9 41 19 67 39 190 55 250 32 33 -12 58 -58 58 -106 0
-19 -2 -35 -4 -35 -2 0 -23 7 -46 15 -54 19 -162 19 -227 0 -62 -18 -137 -83
-153 -131 -19 -56 -14 -140 11 -191 54 -112 243 -157 367 -88 54 30 52 30 52
5 0 -19 5 -21 78 -18 l77 3 0 255 c-1 293 -7 324 -76 384 -53 45 -166 72 -244
59z m128 -414 c36 -10 37 -10 37 -59 0 -47 -2 -50 -43 -75 -84 -49 -205 -39
-236 19 -52 96 76 157 242 115z"/>
<path d="M7589 4709 c-153 -23 -256 -151 -265 -330 -10 -217 103 -365 293
-385 163 -17 306 75 349 224 23 76 22 202 0 273 -50 159 -200 245 -377 218z
m134 -158 c63 -24 99 -96 99 -198 0 -134 -59 -207 -168 -206 -72 1 -113 26
-144 88 -50 101 -23 255 53 304 35 22 117 28 160 12z"/>
<path d="M4822 4690 c2 -5 62 -160 133 -345 l130 -335 80 2 79 3 132 340 133
340 -81 3 c-47 2 -84 -1 -87 -7 -4 -6 -45 -116 -91 -245 l-84 -234 -48 131
c-26 73 -66 183 -89 245 l-41 112 -85 0 c-50 0 -83 -4 -81 -10z"/>
<path d="M5730 4630 l0 -70 95 0 95 0 0 -205 0 -205 -95 0 -95 0 0 -70 0 -70
270 0 270 0 0 70 0 70 -95 0 -95 0 0 275 0 275 -175 0 -175 0 0 -70z"/>
<path d="M8142 4690 c2 -5 62 -160 133 -345 l130 -335 80 2 79 3 132 340 133
340 -81 3 c-47 2 -84 -1 -87 -7 -4 -6 -45 -116 -91 -245 l-84 -234 -48 131
c-26 73 -66 183 -89 245 l-41 112 -85 0 c-50 0 -83 -4 -81 -10z"/>
</g>
</svg>
