<?xml version="1.0" standalone="no"?>
<!DOCTYPE svg PUBLIC "-//W3C//DTD SVG 20010904//EN"
 "http://www.w3.org/TR/2001/REC-SVG-20010904/DTD/svg10.dtd">
<svg version="1.0" xmlns="http://www.w3.org/2000/svg"
 width="16.000000pt" height="16.000000pt" viewBox="0 0 16.000000 16.000000"
 preserveAspectRatio="xMidYMid meet">

<g transform="translate(0.000000,16.000000) scale(0.100000,-0.100000)"
fill="#000000" stroke="none">
<path d="M25 137 c-3 -12 -12 -49 -22 -100 l-5 -27 82 0 82 0 -5 27 c-4 16
-10 46 -14 68 l-8 40 -53 2 c-34 1 -54 -3 -57 -10z m43 -19 c-2 -13 -10 -23
-18 -23 -8 0 -16 10 -18 23 -3 17 2 22 18 22 16 0 21 -5 18 -22z m60 0 c-2
-13 -10 -23 -18 -23 -8 0 -16 10 -18 23 -3 17 2 22 18 22 16 0 21 -5 18 -22z
m10 -51 c22 -17 15 -47 -12 -47 -18 0 -25 7 -30 30 -3 17 -11 30 -18 30 -9 0
-9 -3 0 -12 7 -7 12 -20 12 -30 0 -14 -8 -18 -40 -18 -32 0 -40 4 -40 19 0 44
84 63 128 28z"/>
</g>
</svg>
